<svg viewBox="0 0 9.33325 9.33337" xmlns="http://www.w3.org/2000/svg" xmlns:xlink="http://www.w3.org/1999/xlink" width="9.333252" height="9.333374" fill="none" customFrame="#000000">
	<path id="Icon" d="M4.08333 9.33333L4.08333 4.57917L2.56667 6.09583L1.75 5.25L4.66667 2.33333L7.58333 5.25L6.76667 6.09583L5.25 4.57917L5.25 9.33333L4.08333 9.33333ZM0 2.91667L0 1.16667C0 0.845833 0.114236 0.571181 0.342708 0.342708C0.571181 0.114236 0.845833 0 1.16667 0L8.16667 0C8.4875 0 8.76215 0.114236 8.99063 0.342708C9.2191 0.571181 9.33333 0.845833 9.33333 1.16667L9.33333 2.91667L8.16667 2.91667L8.16667 1.16667L1.16667 1.16667L1.16667 2.91667L0 2.91667Z" fill="rgb(241,245,249)" fill-rule="nonzero" />
</svg>
