<svg viewBox="0 0 19.8 22" xmlns="http://www.w3.org/2000/svg" xmlns:xlink="http://www.w3.org/1999/xlink" width="19.800049" height="22.000000" fill="none" customFrame="#000000">
	<path id="Icon" d="M8.85 22C8.35 22 7.88333 21.8875 7.45 21.6625C7.01667 21.4375 6.65833 21.1167 6.375 20.7L0 11.375L0.6 10.8C0.916667 10.4833 1.29167 10.3 1.725 10.25C2.15833 10.2 2.55 10.3 2.9 10.55L5.8 12.575L5.8 3C5.8 2.71667 5.89583 2.47917 6.0875 2.2875C6.27917 2.09583 6.51667 2 6.8 2C7.08333 2 7.32083 2.09583 7.5125 2.2875C7.70417 2.47917 7.8 2.71667 7.8 3L7.8 16.425L4.1 13.825L8.025 19.55C8.10833 19.6833 8.225 19.7917 8.375 19.875C8.525 19.9583 8.68333 20 8.85 20L12.325 20L15.8 20C16.35 20 16.8208 19.8042 17.2125 19.4125C17.6042 19.0208 17.8 18.55 17.8 18L17.8 4C17.8 3.71667 17.8958 3.47917 18.0875 3.2875C18.2792 3.09583 18.5167 3 18.8 3C19.0833 3 19.3208 3.09583 19.5125 3.2875C19.7042 3.47917 19.8 3.71667 19.8 4L19.8 18C19.8 19.1 19.4083 20.0417 18.625 20.825C17.8417 21.6083 16.9 22 15.8 22L8.85 22ZM9.8 11L9.8 1C9.8 0.716667 9.89583 0.479167 10.0875 0.2875C10.2792 0.0958333 10.5167 0 10.8 0C11.0833 0 11.3208 0.0958333 11.5125 0.2875C11.7042 0.479167 11.8 0.716667 11.8 1L11.8 11L9.8 11ZM13.8 11L13.8 2C13.8 1.71667 13.8958 1.47917 14.0875 1.2875C14.2792 1.09583 14.5167 1 14.8 1C15.0833 1 15.3208 1.09583 15.5125 1.2875C15.7042 1.47917 15.8 1.71667 15.8 2L15.8 11L13.8 11Z" fill="rgb(241,245,249)" fill-rule="nonzero" />
</svg>
