<svg viewBox="0 0 10.5 10.5" xmlns="http://www.w3.org/2000/svg" xmlns:xlink="http://www.w3.org/1999/xlink" width="10.500000" height="10.500000" fill="none" customFrame="#000000">
	<path id="Icon" d="M1.16667 10.5C0.845833 10.5 0.571181 10.3858 0.342708 10.1573C0.114236 9.92882 0 9.65417 0 9.33333L0 1.16667C0 0.845833 0.114236 0.571181 0.342708 0.342708C0.571181 0.114236 0.845833 0 1.16667 0L9.33333 0C9.65417 0 9.92882 0.114236 10.1573 0.342708C10.3858 0.571181 10.5 0.845833 10.5 1.16667L10.5 9.33333C10.5 9.65417 10.3858 9.92882 10.1573 10.1573C9.92882 10.3858 9.65417 10.5 9.33333 10.5L1.16667 10.5ZM1.16667 9.33333L9.33333 9.33333L9.33333 1.16667L1.16667 1.16667L1.16667 9.33333ZM1.75 8.16667L8.75 8.16667L6.5625 5.25L4.8125 7.58333L3.5 5.83333L1.75 8.16667ZM1.16667 9.33333L1.16667 1.16667L1.16667 9.33333Z" fill="rgb(255,255,255)" fill-rule="nonzero" />
</svg>
