<svg viewBox="0 0 48 48" xmlns="http://www.w3.org/2000/svg" xmlns:xlink="http://www.w3.org/1999/xlink" width="48.000000" height="48.000000" fill="none" customFrame="url(#clipPath_2)">
	<defs>
		<clipPath id="clipPath_2">
			<rect width="48.000000" height="48.000000" x="0.000000" y="0.000000" rx="12.000000" fill="rgb(255,255,255)" />
		</clipPath>
		<clipPath id="clipPath_3">
			<rect width="27.500000" height="20.000000" x="10.250000" y="14.000000" fill="rgb(255,255,255)" />
		</clipPath>
	</defs>
	<rect id="Overlay" width="48.000000" height="48.000000" x="0.000000" y="0.000000" rx="12.000000" fill="rgb(255,255,255)" fill-opacity="0.200000003" />
	<g id="Container" customFrame="url(#clipPath_3)">
		<rect id="Container" width="27.500000" height="20.000000" x="10.250000" y="14.000000" />
		<path id="Icon" d="M17.125 34C15.2292 34 13.6094 33.3438 12.2656 32.0312C10.9219 30.7188 10.25 29.1146 10.25 27.2188C10.25 25.5938 10.7396 24.1458 11.7188 22.875C12.6979 21.6042 13.9792 20.7917 15.5625 20.4375C16.0833 18.5208 17.125 16.9688 18.6875 15.7812C20.25 14.5938 22.0208 14 24 14C26.4375 14 28.5052 14.849 30.2031 16.5469C31.901 18.2448 32.75 20.3125 32.75 22.75C34.1875 22.9167 35.3802 23.5365 36.3281 24.6094C37.276 25.6823 37.75 26.9375 37.75 28.375C37.75 29.9375 37.2031 31.2656 36.1094 32.3594C35.0156 33.4531 33.6875 34 32.125 34L25.25 34C24.5625 34 23.974 33.7552 23.4844 33.2656C22.9948 32.776 22.75 32.1875 22.75 31.5L22.75 25.0625L20.75 27L19 25.25L24 20.25L29 25.25L27.25 27L25.25 25.0625L25.25 31.5L32.125 31.5C33 31.5 33.7396 31.1979 34.3438 30.5938C34.9479 29.9896 35.25 29.25 35.25 28.375C35.25 27.5 34.9479 26.7604 34.3438 26.1562C33.7396 25.5521 33 25.25 32.125 25.25L30.25 25.25L30.25 22.75C30.25 21.0208 29.6406 19.5469 28.4219 18.3281C27.2031 17.1094 25.7292 16.5 24 16.5C22.2708 16.5 20.7969 17.1094 19.5781 18.3281C18.3594 19.5469 17.75 21.0208 17.75 22.75L17.125 22.75C15.9167 22.75 14.8854 23.1771 14.0312 24.0312C13.1771 24.8854 12.75 25.9167 12.75 27.125C12.75 28.3333 13.1771 29.3646 14.0312 30.2188C14.8854 31.0729 15.9167 31.5 17.125 31.5L20.25 31.5L20.25 34L17.125 34Z" fill="rgb(255,255,255)" fill-rule="nonzero" />
	</g>
</svg>
