<svg viewBox="0 0 80 80" xmlns="http://www.w3.org/2000/svg" xmlns:xlink="http://www.w3.org/1999/xlink" width="80.000000" height="80.000000" fill="none" customFrame="url(#clipPath_0)">
	<defs>
		<clipPath id="clipPath_0">
			<rect width="80.000000" height="80.000000" x="0.000000" y="0.000000" rx="16.000000" fill="rgb(255,255,255)" />
		</clipPath>
		<clipPath id="clipPath_1">
			<rect width="21.000000" height="30.000000" x="29.500000" y="25.000000" fill="rgb(255,255,255)" />
		</clipPath>
	</defs>
	<rect id="Overlay" width="80.000000" height="80.000000" x="0.000000" y="0.000000" rx="16.000000" fill="rgb(101,103,241)" fill-opacity="0.200000003" />
	<g id="Container" customFrame="url(#clipPath_1)">
		<rect id="Container" width="21.000000" height="30.000000" x="29.500000" y="25.000000" />
		<path id="Icon" d="M32.5 55C31.675 55 30.9688 54.7062 30.3813 54.1188C29.7938 53.5312 29.5 52.825 29.5 52L29.5 37C29.5 36.175 29.7938 35.4688 30.3813 34.8812C30.9688 34.2938 31.675 34 32.5 34L47.5 34C48.325 34 49.0312 34.2938 49.6188 34.8812C50.2062 35.4688 50.5 36.175 50.5 37L50.5 52C50.5 52.825 50.2062 53.5312 49.6188 54.1188C49.0312 54.7062 48.325 55 47.5 55L32.5 55ZM32.5 52L47.5 52L47.5 37L32.5 37L32.5 52ZM38.5 50.5L41.5 50.5L41.5 49L38.5 49L38.5 50.5ZM38.5 47.5L41.5 47.5C41.5 47.025 41.6188 46.5938 41.8563 46.2062C42.0938 45.8187 42.35 45.4375 42.625 45.0625C42.925 44.6375 43.1875 44.1813 43.4125 43.6937C43.6375 43.2063 43.75 42.7 43.75 42.175C43.75 41.15 43.3875 40.2812 42.6625 39.5687C41.9375 38.8563 41.05 38.5 40 38.5C38.95 38.5 38.0625 38.8563 37.3375 39.5687C36.6125 40.2812 36.25 41.15 36.25 42.175C36.25 42.7 36.3688 43.2 36.6063 43.675C36.8438 44.15 37.1 44.6 37.375 45.025C37.65 45.425 37.9062 45.8187 38.1437 46.2062C38.3812 46.5938 38.5 47.025 38.5 47.5ZM31 31.75C31 31.125 31.2188 30.5938 31.6562 30.1562C32.0938 29.7188 32.625 29.5 33.25 29.5L46.75 29.5C47.375 29.5 47.9062 29.7188 48.3438 30.1562C48.7812 30.5938 49 31.125 49 31.75L31 31.75ZM32.5 27.25C32.5 26.625 32.7188 26.0938 33.1562 25.6562C33.5938 25.2188 34.125 25 34.75 25L45.25 25C45.875 25 46.4062 25.2188 46.8438 25.6562C47.2812 26.0938 47.5 26.625 47.5 27.25L32.5 27.25Z" fill="rgb(101,103,241)" fill-rule="nonzero" />
	</g>
</svg>
