<svg viewBox="0 0 15 16.6667" xmlns="http://www.w3.org/2000/svg" xmlns:xlink="http://www.w3.org/1999/xlink" width="15.000000" height="16.666748" fill="none" customFrame="#000000">
	<path id="Icon" d="M6.33333 12.5417L12.2083 6.66667L11.0417 5.5L6.33333 10.2083L3.95833 7.83333L2.79167 9L6.33333 12.5417ZM1.66667 16.6667C1.20833 16.6667 0.815972 16.5035 0.489583 16.1771C0.163194 15.8507 0 15.4583 0 15L0 3.33333C0 2.875 0.163194 2.48264 0.489583 2.15625C0.815972 1.82986 1.20833 1.66667 1.66667 1.66667L5.16667 1.66667C5.34722 1.16667 5.64931 0.763889 6.07292 0.458333C6.49653 0.152778 6.97222 0 7.5 0C8.02778 0 8.50347 0.152778 8.92708 0.458333C9.35069 0.763889 9.65278 1.16667 9.83333 1.66667L13.3333 1.66667C13.7917 1.66667 14.184 1.82986 14.5104 2.15625C14.8368 2.48264 15 2.875 15 3.33333L15 15C15 15.4583 14.8368 15.8507 14.5104 16.1771C14.184 16.5035 13.7917 16.6667 13.3333 16.6667L1.66667 16.6667ZM1.66667 15L13.3333 15L13.3333 3.33333L1.66667 3.33333L1.66667 15ZM7.5 2.70833C7.68056 2.70833 7.82986 2.64931 7.94792 2.53125C8.06597 2.41319 8.125 2.26389 8.125 2.08333C8.125 1.90278 8.06597 1.75347 7.94792 1.63542C7.82986 1.51736 7.68056 1.45833 7.5 1.45833C7.31944 1.45833 7.17014 1.51736 7.05208 1.63542C6.93403 1.75347 6.875 1.90278 6.875 2.08333C6.875 2.26389 6.93403 2.41319 7.05208 2.53125C7.17014 2.64931 7.31944 2.70833 7.5 2.70833ZM1.66667 15L1.66667 3.33333L1.66667 15Z" fill="rgb(101,103,241)" fill-rule="nonzero" />
</svg>
