<svg viewBox="0 0 15.8333 15" xmlns="http://www.w3.org/2000/svg" xmlns:xlink="http://www.w3.org/1999/xlink" width="15.833328" height="15.000000" fill="none" customFrame="#000000">
	<path id="Icon" d="M0.833333 15L0.833333 11.4583L11.8125 0.5C11.9792 0.333333 12.1667 0.208333 12.375 0.125C12.5833 0.0416667 12.7917 0 13 0C13.2222 0 13.434 0.0416667 13.6354 0.125C13.8368 0.208333 14.0139 0.333333 14.1667 0.5L15.3333 1.66667C15.5 1.81944 15.625 1.99653 15.7083 2.19792C15.7917 2.39931 15.8333 2.61111 15.8333 2.83333C15.8333 3.04167 15.7917 3.25 15.7083 3.45833C15.625 3.66667 15.5 3.85417 15.3333 4.02083L4.375 15L0.833333 15ZM2.5 13.3333L3.66667 13.3333L11.8542 5.16667L11.2708 4.5625L10.6667 3.97917L2.5 12.1667L2.5 13.3333ZM14.1667 2.85417L12.9792 1.66667L14.1667 2.85417ZM11.2708 4.5625L10.6667 3.97917L11.8542 5.16667L11.2708 4.5625ZM9.16667 15C10.1944 15 11.1458 14.7431 12.0208 14.2292C12.8958 13.7153 13.3333 13 13.3333 12.0833C13.3333 11.5833 13.2014 11.1528 12.9375 10.7917C12.6736 10.4306 12.3194 10.1181 11.875 9.85417L10.6458 11.0833C10.9653 11.2222 11.2153 11.375 11.3958 11.5417C11.5764 11.7083 11.6667 11.8889 11.6667 12.0833C11.6667 12.4028 11.4132 12.691 10.9062 12.9479C10.3993 13.2049 9.81944 13.3333 9.16667 13.3333C8.93056 13.3333 8.73264 13.4132 8.57292 13.5729C8.41319 13.7326 8.33333 13.9306 8.33333 14.1667C8.33333 14.4028 8.41319 14.6007 8.57292 14.7604C8.73264 14.9201 8.93056 15 9.16667 15ZM1.3125 8.625L2.5625 7.375C2.28472 7.26389 2.06597 7.14931 1.90625 7.03125C1.74653 6.91319 1.66667 6.79167 1.66667 6.66667C1.66667 6.5 1.79167 6.33333 2.04167 6.16667C2.29167 6 2.81944 5.74306 3.625 5.39583C4.84722 4.86806 5.65972 4.38889 6.0625 3.95833C6.46528 3.52778 6.66667 3.04167 6.66667 2.5C6.66667 1.73611 6.36111 1.12847 5.75 0.677083C5.13889 0.225694 4.33333 0 3.33333 0C2.70833 0 2.14931 0.111111 1.65625 0.333333C1.16319 0.555556 0.784722 0.826389 0.520833 1.14583C0.368056 1.32639 0.305556 1.52778 0.333333 1.75C0.361111 1.97222 0.465278 2.15278 0.645833 2.29167C0.826389 2.44444 1.02778 2.50694 1.25 2.47917C1.47222 2.45139 1.65972 2.36111 1.8125 2.20833C2.00694 2.01389 2.22222 1.875 2.45833 1.79167C2.69444 1.70833 2.98611 1.66667 3.33333 1.66667C3.90278 1.66667 4.32292 1.75 4.59375 1.91667C4.86458 2.08333 5 2.27778 5 2.5C5 2.69444 4.87847 2.87153 4.63542 3.03125C4.39236 3.19097 3.83333 3.47222 2.95833 3.875C1.84722 4.36111 1.07639 4.80208 0.645833 5.19792C0.215278 5.59375 0 6.08333 0 6.66667C0 7.11111 0.118056 7.48958 0.354167 7.80208C0.590278 8.11458 0.909722 8.38889 1.3125 8.625Z" fill="rgb(255,255,255)" fill-rule="nonzero" />
</svg>
