<svg viewBox="0 0 48 48" xmlns="http://www.w3.org/2000/svg" xmlns:xlink="http://www.w3.org/1999/xlink" width="48.000000" height="48.000000" fill="none" customFrame="url(#clipPath_4)">
	<defs>
		<clipPath id="clipPath_4">
			<rect width="48.000000" height="48.000000" x="0.000000" y="0.000000" rx="12.000000" fill="rgb(255,255,255)" />
		</clipPath>
		<clipPath id="clipPath_5">
			<rect width="26.875000" height="20.000000" x="10.562500" y="14.000000" fill="rgb(255,255,255)" />
		</clipPath>
	</defs>
	<rect id="Overlay" width="48.000000" height="48.000000" x="0.000000" y="0.000000" rx="12.000000" fill="rgb(101,103,241)" fill-opacity="0.200000003" />
	<g id="Container" customFrame="url(#clipPath_5)">
		<rect id="Container" width="26.875000" height="20.000000" x="10.562500" y="14.000000" />
		<path id="Icon" d="M13.0625 34C12.375 34 11.7865 33.7552 11.2969 33.2656C10.8073 32.776 10.5625 32.1875 10.5625 31.5L10.5625 16.5C10.5625 15.8125 10.8073 15.224 11.2969 14.7344C11.7865 14.2448 12.375 14 13.0625 14L20.5625 14L23.0625 16.5L33.0625 16.5C33.75 16.5 34.3385 16.7448 34.8281 17.2344C35.3177 17.724 35.5625 18.3125 35.5625 19L22.0312 19L19.5312 16.5L13.0625 16.5L13.0625 31.5L16.0625 21.5L37.4375 21.5L34.2188 32.2188C34.0521 32.7604 33.7448 33.1927 33.2969 33.5156C32.849 33.8385 32.3542 34 31.8125 34L13.0625 34ZM15.6875 31.5L31.8125 31.5L34.0625 24L17.9375 24L15.6875 31.5ZM15.6875 31.5L17.9375 24L15.6875 31.5ZM13.0625 19L13.0625 16.5L13.0625 19Z" fill="rgb(101,103,241)" fill-rule="nonzero" />
	</g>
</svg>
